<svg width="121" height="121" viewBox="0 0 121 121" fill="none" xmlns="http://www.w3.org/2000/svg">
<path d="M64 69.5L50 23.5C36 28 27.5 35 21.5 47.5L64 69.5Z" fill="#F1F3F3"/>
<circle cx="60.5" cy="60.5" r="49.5" stroke="white"/>
<path d="M65.5 66L51.5 20C37.5 24.5 29 31.5 23 44L65.5 66Z" stroke="white"/>
<path d="M54 27.5C48.1667 28.5 35.1 33.9 29.5 47.5" stroke="white"/>
<path d="M76.2755 87.9218L100.649 46.4736C87.858 39.2176 76.9515 37.7018 63.6901 41.7497L76.2755 87.9218Z" stroke="white"/>
<path d="M96.8219 53.3914C92.1364 49.7757 79.3154 43.8159 65.5153 48.903" stroke="white"/>
<circle cx="44.5" cy="34.5" r="2.75" stroke="white" stroke-width="0.5"/>
<circle cx="50.5" cy="55.5" r="2.75" stroke="white" stroke-width="0.5"/>
<circle cx="54.5" cy="43.5" r="1.75" stroke="white" stroke-width="0.5"/>
<circle cx="43.5" cy="45.5" r="1" fill="#222222"/>
<circle cx="59.5" cy="55.5" r="1" fill="#222222"/>
<path d="M85 48L69.5 64" stroke="white" stroke-width="0.5"/>
<path d="M80 47L68.5 58.5" stroke="white" stroke-width="0.5"/>
<path d="M74.5 47L67.5 54" stroke="white" stroke-width="0.5"/>
<path d="M90 49.5L71.5 68.5" stroke="white" stroke-width="0.5"/>
<path d="M94 51.5L72.5 73.5" stroke="white" stroke-width="0.5"/>
<path d="M93 59L73.5 79.5" stroke="white" stroke-width="0.5"/>
<path d="M54.1846 78.5684C54.1846 78.5684 37.0797 69.205 35.3253 68.2446C33.571 67.2843 32.6107 69.0386 34.365 69.999C36.1193 70.9593 53.2242 80.3227 53.2242 80.3227" stroke="white"/>
<path d="M68.4272 80.6648L60.9713 76.5833C55.2697 73.4622 48.4319 82.8294 55.4493 86.6708L62.9052 90.7523" stroke="white"/>
<path d="M56.7744 81.1262L65.5461 85.928" stroke="white"/>
</svg>
