<svg width="75" height="75" viewBox="0 0 75 75" fill="none" xmlns="http://www.w3.org/2000/svg">
<g clip-path="url(#clip0_23_13)">
<path fill-rule="evenodd" clip-rule="evenodd" d="M37.5 5.35714C19.748 5.35714 5.35714 19.748 5.35714 37.5C5.35714 41.2568 6.00166 44.8631 7.18615 48.2143H14.7321C16.5081 48.2143 18.2114 47.5088 19.4672 46.253C20.7231 44.9972 21.4286 43.2939 21.4286 41.5179V33.4822C21.4286 30.2854 22.6985 27.2195 24.959 24.959C27.2195 22.6985 30.2853 21.4286 33.4821 21.4286C35.2581 21.4286 36.9614 20.7231 38.2172 19.4673C39.4731 18.2114 40.1786 16.5082 40.1786 14.7322V5.46716C39.2954 5.3943 38.402 5.35714 37.5 5.35714ZM37.5 69.6429C25.6026 69.6429 15.215 63.179 9.65731 53.5715H14.7321C17.9289 53.5715 20.9948 52.3015 23.2553 50.0411C25.5158 47.7806 26.7857 44.7147 26.7857 41.5179V33.4822C26.7857 31.7062 27.4912 30.0029 28.7471 28.7471C30.0029 27.4913 31.7061 26.7858 33.4821 26.7858C36.679 26.7858 39.7448 25.5158 42.0053 23.2553C44.2658 20.9949 45.5357 17.929 45.5357 14.7322V6.36978C57.9615 9.56796 67.4794 20.0096 69.3198 32.9252C67.4813 32.4182 65.5778 32.1534 63.6576 32.1429H52.2321C49.0353 32.1429 45.9695 33.4128 43.709 35.6733C41.4485 37.9338 40.1786 40.9996 40.1786 44.1964C40.1786 47.3932 41.4485 50.4591 43.709 52.7196C45.9695 54.9801 49.0353 56.25 52.2321 56.25C53.2977 56.25 54.3197 56.6733 55.0732 57.4268C55.8267 58.1803 56.25 59.2023 56.25 60.2679V63.6105C50.9726 67.4069 44.4974 69.6429 37.5 69.6429ZM61.5036 58.8779C66.3246 53.4685 69.3446 46.4189 69.6219 38.6706C67.7216 37.911 65.6912 37.5122 63.6352 37.5H52.2321C50.4561 37.5 48.7529 38.2055 47.4971 39.4613C46.2412 40.7172 45.5357 42.4204 45.5357 44.1964C45.5357 45.9724 46.2412 47.6757 47.4971 48.9315C48.7529 50.1873 50.4561 50.8929 52.2321 50.8929C54.7185 50.8929 57.1031 51.8806 58.8613 53.6387C60.2884 55.0659 61.2079 56.9058 61.5036 58.8779ZM74.9978 37.088C74.9993 37.2252 75 37.3625 75 37.5C75 58.2107 58.2107 75 37.5 75C16.7893 75 0 58.2107 0 37.5C0 16.7893 16.7893 0 37.5 0C39.3078 0 41.0858 0.127929 42.8253 0.375227L42.8571 0.375039C43.1512 0.375039 43.4341 0.422405 43.6988 0.509929C61.2251 3.42526 74.6417 18.4954 74.9929 36.7649C75.001 36.8721 75.0027 36.9799 74.9978 37.088Z" fill="white"/>
</g>
<defs>
<clipPath id="clip0_23_13">
<rect width="75" height="75" fill="white"/>
</clipPath>
</defs>
</svg>
