<svg width="33" height="33" viewBox="0 0 33 33" fill="none" xmlns="http://www.w3.org/2000/svg">
<path fill-rule="evenodd" clip-rule="evenodd" d="M30.1756 2.76658C31.0052 3.59583 31.6525 4.58916 32.076 5.68297C32.5644 6.98067 32.825 8.35297 32.8463 9.73937C32.9488 11.4904 32.9488 12.0576 32.9488 16.5275C32.9488 20.9974 32.925 21.5554 32.8463 23.3156C32.8189 24.6842 32.5609 26.0345 32.0797 27.3152C31.6556 28.4089 31.0081 29.4022 30.1786 30.2317C29.3491 31.0612 28.3559 31.7086 27.2622 32.1328C25.9818 32.6124 24.6295 32.8716 23.2625 32.8994C21.5152 33 20.9425 33 16.4744 33C12.0063 33 11.4483 32.9762 9.6863 32.8994C8.31656 32.8544 6.96454 32.5759 5.68846 32.076C4.59443 31.6526 3.60076 31.0056 2.77093 30.1764C1.9411 29.3472 1.29336 28.3541 0.869096 27.2603C0.387891 25.9777 0.129907 24.6274 0.102462 23.2588C0 21.5078 0 20.9388 0 16.4707C0 12.0008 0.0237858 11.4428 0.102462 9.68265C0.129202 8.31558 0.388449 6.96304 0.869096 5.68297C1.29217 4.58887 1.93928 3.59529 2.76891 2.76597C3.59854 1.93666 4.59237 1.28992 5.68663 0.867266C6.96513 0.385332 8.31659 0.125437 9.68264 0.0988023C11.43 0 12.0027 0 16.4707 0C20.9388 0 21.4969 0.0219559 23.2588 0.0988023C24.6259 0.126872 25.9784 0.386715 27.2585 0.867266C28.3525 1.29042 29.3461 1.93733 30.1756 2.76658ZM29.2785 26.2119C29.6432 25.2225 29.8357 24.1779 29.8475 23.1234V23.1253H29.8676C29.9463 21.3761 29.9463 20.8968 29.9463 16.44V16.4396C29.9463 11.9807 29.9262 11.4922 29.8475 9.75217C29.8305 8.70955 29.6381 7.67723 29.2785 6.69844C29.0035 5.98683 28.5828 5.34057 28.0434 4.80113C27.5039 4.26169 26.8577 3.84099 26.1461 3.56604C25.1678 3.20206 24.1342 3.00956 23.0905 2.99701C21.3212 2.89638 20.8638 2.89638 16.4049 2.89638C11.946 2.89638 11.4574 2.91833 9.71741 2.99701C8.67454 3.01158 7.64181 3.20402 6.66368 3.56604C5.22007 4.1186 4.07652 5.25483 3.51847 6.69844C3.15373 7.68724 2.96126 8.73126 2.94944 9.78511C2.85246 11.5581 2.85246 12.0137 2.85246 16.4725V16.4726C2.85246 20.9297 2.87076 21.42 2.94944 23.1582C2.96647 24.2008 3.15884 25.2332 3.51847 26.2119C3.79445 26.9248 4.217 27.5718 4.75879 28.1111C5.30057 28.6503 5.94953 29.0699 6.66368 29.3425C7.64132 29.7063 8.67436 29.8988 9.71741 29.9115C11.4885 30.0122 11.9441 30.0122 16.4049 30.0122C20.862 30.0122 21.3523 29.9921 23.0905 29.9115C24.1341 29.8981 25.1676 29.7056 26.1461 29.3425C26.8577 29.0682 27.5041 28.6479 28.0436 28.1087C28.5831 27.5696 29.0037 26.9234 29.2785 26.2119ZM25.2569 9.66071C26.3462 9.66071 27.2293 8.77765 27.2293 7.68832C27.2293 6.599 26.3462 5.71593 25.2569 5.71593C24.1676 5.71593 23.2845 6.599 23.2845 7.68832C23.2845 8.77765 24.1676 9.66071 25.2569 9.66071ZM16.4616 7.99943C14.2178 7.99943 12.0658 8.89079 10.4792 10.4774C8.89257 12.0641 8.0012 14.216 8.0012 16.4599C8.0012 18.7037 8.89257 20.8556 10.4792 22.4423C12.0658 24.0289 14.2178 24.9203 16.4616 24.9203C18.7055 24.9203 20.8574 24.0289 22.444 22.4423C24.0307 20.8556 24.922 18.7037 24.922 16.4599C24.922 14.216 24.0307 12.0641 22.444 10.4774C20.8574 8.89079 18.7055 7.99943 16.4616 7.99943ZM16.4616 21.9544C15.0039 21.9544 13.6059 21.3753 12.5751 20.3445C11.5444 19.3138 10.9653 17.9157 10.9653 16.458C10.9653 15.0003 11.5444 13.6023 12.5751 12.5715C13.6059 11.5408 15.0039 10.9617 16.4616 10.9617C17.9193 10.9617 19.3174 11.5408 20.3481 12.5715C21.3789 13.6023 21.958 15.0003 21.958 16.458C21.958 17.9157 21.3789 19.3138 20.3481 20.3445C19.3174 21.3753 17.9193 21.9544 16.4616 21.9544Z" fill="url(#paint0_linear_1_22)"/>
<defs>
<linearGradient id="paint0_linear_1_22" x1="27.5702" y1="1.53168" x2="2.68134" y2="30.2512" gradientUnits="userSpaceOnUse">
<stop offset="0.17301" stop-color="#4967D5"/>
<stop offset="0.688933" stop-color="#DB2E7D"/>
<stop offset="1" stop-color="#FFAF00"/>
</linearGradient>
</defs>
</svg>
