<svg width="120" height="120" viewBox="0 0 120 120" fill="none" xmlns="http://www.w3.org/2000/svg">
<path d="M59 55C59 43.9543 50.0457 35 39 35H14V105H59V55Z" fill="#4E4BF2"/>
<path d="M81 33.5H104.5V100.5H62.5V52C62.5 41.7827 70.7827 33.5 81 33.5Z" stroke="white" stroke-width="3"/>
<path d="M42 33.5H18.5V100.5H60.5V52C60.5 41.7827 52.2173 33.5 42 33.5Z" stroke="white" stroke-width="3"/>
<path d="M70 80.5H97.5" stroke="white" stroke-width="3" stroke-linejoin="round"/>
<path d="M70 72H97.5" stroke="white" stroke-width="3" stroke-linejoin="round"/>
<path d="M70 89H97.5" stroke="white" stroke-width="3" stroke-linejoin="round"/>
<path fill-rule="evenodd" clip-rule="evenodd" d="M37.182 80.089C37.182 82.421 33.682 87.018 32.482 88.513C32.3871 88.632 32.2432 88.7014 32.091 88.7014C31.9388 88.7014 31.7949 88.632 31.7 88.513C30.508 87.013 27 82.421 27 80.089C27 77.2784 29.2784 75 32.089 75C34.8996 75 37.178 77.2784 37.178 80.089H37.182Z" stroke="white" stroke-width="3" stroke-linecap="round" stroke-linejoin="round"/>
<path fill-rule="evenodd" clip-rule="evenodd" d="M34.002 80.089C34.002 81.1428 33.1478 81.997 32.094 81.997C31.0402 81.997 30.186 81.1428 30.186 80.089C30.186 79.0352 31.0402 78.181 32.094 78.181C33.1475 78.1816 34.0014 79.0355 34.002 80.089Z" stroke="white" stroke-width="3" stroke-linecap="round" stroke-linejoin="round"/>
<path fill-rule="evenodd" clip-rule="evenodd" d="M78.4276 35.1802C78.1401 35.6624 77.5621 35.888 77.0239 35.7283C76.4857 35.5685 76.1245 35.064 76.1467 34.503L76.4672 25.8476L72.5784 21.5618C71.783 20.6964 71.8112 19.3579 72.6423 18.5269C73.4733 17.6958 74.8118 17.6676 75.6772 18.463L79.963 22.3518L88.6184 22.0313C89.1794 22.0091 89.6839 22.3703 89.8437 22.9085C90.0034 23.4467 89.7778 24.0247 89.2956 24.3122L84.4538 27.2173L86.201 29.1094C86.3611 29.282 86.5618 29.4118 86.7848 29.487L89.2928 30.323C89.6329 30.4346 89.891 30.7145 89.9747 31.0625C90.0585 31.4105 89.956 31.7771 89.7038 32.0313C89.5089 32.2251 89.2613 32.3574 88.9918 32.4116L87.8535 32.6387C87.3014 32.7489 86.8699 33.1804 86.7597 33.7325L86.5326 34.8709C86.4784 35.1404 86.3461 35.388 86.1522 35.5829C85.8993 35.8353 85.5338 35.9389 85.186 35.857C84.8382 35.775 84.5576 35.519 84.444 35.1802L83.608 32.6722C83.5328 32.4491 83.403 32.2485 83.2304 32.0884L81.3383 30.3411L78.4276 35.1802Z" fill="#4E4BF2"/>
<path fill-rule="evenodd" clip-rule="evenodd" d="M79.87 32.2957C79.5825 32.7778 79.0045 33.0035 78.4663 32.8437C77.9281 32.684 77.5669 32.1795 77.5891 31.6185L77.9096 22.9631L74.0208 18.6772C73.2254 17.8119 73.2536 16.4734 74.0847 15.6423C74.9157 14.8113 76.2542 14.7831 77.1195 15.5785L81.4054 19.4672L90.0608 19.1468C90.6218 19.1246 91.1263 19.4858 91.286 20.024C91.4458 20.5622 91.2201 21.1402 90.738 21.4277L85.8961 24.3328L87.6434 26.2249C87.8034 26.3975 88.0041 26.5273 88.2272 26.6025L90.7352 27.4385C91.0753 27.5501 91.3334 27.8299 91.4171 28.178C91.5009 28.526 91.3984 28.8926 91.1462 29.1467C90.9513 29.3406 90.7037 29.4729 90.4342 29.5271L89.2959 29.7542C88.7438 29.8644 88.3123 30.2959 88.2021 30.848L87.975 31.9863C87.9208 32.2558 87.7885 32.5034 87.5946 32.6983C87.3417 32.9507 86.9762 33.0544 86.6284 32.9724C86.2806 32.8905 85.9999 32.6345 85.8864 32.2957L85.0504 29.7877C84.9752 29.5646 84.8454 29.3639 84.6728 29.2039L82.7806 27.4566L79.87 32.2957Z" stroke="white" stroke-width="3" stroke-linecap="round" stroke-linejoin="round"/>
</svg>
