<svg width="121" height="120" viewBox="0 0 121 120" fill="none" xmlns="http://www.w3.org/2000/svg">
<path d="M31.5584 50.8019C30.9351 51.3884 30.209 51.6789 29.2947 51.6789C28.3812 51.6789 27.7006 51.3903 27.144 50.8336C26.5873 50.277 26.2988 49.5964 26.2988 48.6829C26.2988 47.7694 26.5873 47.0888 27.144 46.5322C27.7006 45.9756 28.3812 45.687 29.2947 45.687C30.209 45.687 30.9351 45.9774 31.5584 46.5639C32.1576 47.1278 32.4512 47.7988 32.4512 48.6829C32.4512 49.5671 32.1576 50.238 31.5584 50.8019Z" stroke="#FBFFFB" stroke-width="3"/>
<path d="M50.2962 52.3016L50.3275 52.2877L50.3387 52.2821C50.3398 52.2819 50.341 52.2816 50.3423 52.2813C50.3641 52.277 50.4111 52.2703 50.4898 52.2703C50.7611 52.2703 50.9063 52.3447 51.0349 52.4733C51.1634 52.6018 51.2378 52.747 51.2378 53.0183C51.2378 53.2143 51.1976 53.3364 51.0368 53.4674L43.2892 56.7214L42.1362 56.9776H37.4837H35.2479L36.0958 59.0465L40.11 68.8412L40.4916 69.7724H41.498H50.3293C50.8014 69.7724 51.1196 69.8089 51.3167 69.8544C51.372 69.8671 51.4096 69.8787 51.4329 69.8869L60.07 77.7242C60.0714 77.7255 60.0729 77.7268 60.0743 77.7281C60.5963 78.2113 60.6672 78.5179 60.6725 78.6488C60.6776 78.7782 60.6326 79.0837 60.1668 79.5958C59.7957 79.9589 59.4874 80.0431 59.18 80.0226C58.7223 79.9921 58.3109 79.8359 57.9145 79.5179L50.4151 72.178L49.9778 71.75H49.3659H36.3598C35.4857 71.75 34.8706 71.5755 34.435 71.3173C34.0131 71.0673 33.6622 70.6822 33.3986 70.0796L33.3923 70.0653L33.3857 70.051L28.5468 59.5926V58.7988C28.5468 57.9128 28.8431 57.197 29.4723 56.5678C30.1014 55.9386 30.8173 55.6423 31.7033 55.6423H42.4614H42.7797L43.0706 55.513L50.2962 52.3016Z" stroke="#FBFFFB" stroke-width="3"/>
<path d="M65.4286 81L39.5 15C76.4286 20.4072 91.5536 53.0361 94.5 68.6747L65.4286 81Z" fill="#4BF27A"/>
<path d="M66.9571 77L41.5 12C77.7571 17.3253 92.6071 49.4598 95.5 64.8614L66.9571 77Z" stroke="#FBFFFB" stroke-width="3"/>
<path d="M87.869 77.5846C68.3491 82.0824 52.1533 91.6402 46.4954 97.2625C42.2519 101.128 41.262 105.227 41.5447 107.101C47.2026 109.913 53.9214 105.696 56.0431 100.425C58.1649 95.1542 64.1764 94.1 67.7126 94.8028C71.2488 95.5055 80.443 94.1 82.2111 87.4235C83.6255 82.0824 90.5801 82.1527 93.8805 82.8554C100.01 79.2244 107.389 73.0867 87.869 77.5846Z" stroke="#FBFFFB" stroke-width="3"/>
</svg>
